<svg xmlns="http://www.w3.org/2000/svg" viewBox="0 0 600 800">
  <rect width="600" height="800" rx="36" fill="#140b22"/>
  <circle cx="300" cy="265" r="120" fill="#e8b8a2"/>
  <path d="M204 312c22-112 170-114 192-2 20 102-40 210-96 210-58 0-122-108-96-208Z" fill="#38213d"/>
  <path d="M218 252c16-76 160-74 176-4 14 72-28 148-88 148-58 0-100-70-88-144Z" fill="#5d2e58"/>
  <circle cx="255" cy="278" r="8" fill="#111"/>
  <circle cx="345" cy="278" r="8" fill="#111"/>
  <path d="M260 332c24 20 56 20 80 0" stroke="#a15757" stroke-width="8" fill="none" stroke-linecap="round"/>
  <path d="M238 192c18-52 108-62 142-18" stroke="#e8b8a2" stroke-width="16" fill="none" stroke-linecap="round"/>
  <path d="M182 700c24-172 212-172 236 0" fill="#6d3156"/>
</svg>